<?xml version="1.0" ?><svg id="Layer_1" style="enable-background:new 0 0 100 100;" version="1.1" viewBox="0 0 100 100" xml:space="preserve" xmlns="http://www.w3.org/2000/svg" xmlns:xlink="http://www.w3.org/1999/xlink"><path d="M26.585,5v90c0,1.104,0.896,2,2,2h13c1.104,0,2-0.896,2-2V5c0-1.104-0.896-2-2-2h-13C27.481,3,26.585,3.896,26.585,5z   M30.585,7h9v86h-9V7z"/><path d="M56.415,5v90c0,1.104,0.896,2,2,2h13c1.104,0,2-0.896,2-2V5c0-1.104-0.896-2-2-2h-13C57.31,3,56.415,3.896,56.415,5z   M60.415,7h9v86h-9V7z"/></svg>